<svg xmlns="http://www.w3.org/2000/svg" xmlns:xlink="http://www.w3.org/1999/xlink" viewBox="0 0 1920 1920" width="1920" height="1920" preserveAspectRatio="xMidYMid meet" style="width: 100%; height: 100%; transform: translate3d(0px, 0px, 0px); content-visibility: visible;"><defs><clipPath id="__lottie_element_3"><rect width="1920" height="1920" x="0" y="0"></rect></clipPath><filter id="__lottie_element_9"><feColorMatrix type="matrix" color-interpolation-filters="sRGB" values="0 0 0 0 0.9921569228172302 0 0 0 0 0.8549020290374756 0 0 0 0 0.34117648005485535 0 0 0 1 0" result="filter_result_0"></feColorMatrix></filter><filter id="__lottie_element_12"><feColorMatrix type="matrix" color-interpolation-filters="sRGB" values="0 0 0 0 0.9921569228172302 0 0 0 0 0.8549020290374756 0 0 0 0 0.34117648005485535 0 0 0 1 0" result="filter_result_0"></feColorMatrix></filter><filter id="__lottie_element_15"><feColorMatrix type="matrix" color-interpolation-filters="sRGB" values="0 0 0 0 0.9921569228172302 0 0 0 0 0.8549020290374756 0 0 0 0 0.34117648005485535 0 0 0 1 0" result="filter_result_0"></feColorMatrix></filter><filter id="__lottie_element_18"><feColorMatrix type="matrix" color-interpolation-filters="sRGB" values="0 0 0 0 0.9921568632125854 0 0 0 0 0.8549019694328308 0 0 0 0 0.34117648005485535 0 0 0 1 0" result="filter_result_0"></feColorMatrix></filter><filter id="__lottie_element_21"><feColorMatrix type="matrix" color-interpolation-filters="sRGB" values="0 0 0 0 0.9921568632125854 0 0 0 0 0.8549019694328308 0 0 0 0 0.34117648005485535 0 0 0 1 0" result="filter_result_0"></feColorMatrix></filter><filter id="__lottie_element_24"><feColorMatrix type="matrix" color-interpolation-filters="sRGB" values="0 0 0 0 0.9921568632125854 0 0 0 0 0.8549019694328308 0 0 0 0 0.34117648005485535 0 0 0 1 0" result="filter_result_0"></feColorMatrix></filter><filter id="__lottie_element_27"><feColorMatrix type="matrix" color-interpolation-filters="sRGB" values="0 0 0 0 0.9921568632125854 0 0 0 0 0.8549019694328308 0 0 0 0 0.34117648005485535 0 0 0 1 0" result="filter_result_0"></feColorMatrix></filter><filter id="__lottie_element_30"><feColorMatrix type="matrix" color-interpolation-filters="sRGB" values="0 0 0 0 0.9921568632125854 0 0 0 0 0.8549019694328308 0 0 0 0 0.34117648005485535 0 0 0 1 0" result="filter_result_0"></feColorMatrix></filter><filter id="__lottie_element_33"><feColorMatrix type="matrix" color-interpolation-filters="sRGB" values="0 0 0 0 0.9921568632125854 0 0 0 0 0.8549019694328308 0 0 0 0 0.34117648005485535 0 0 0 1 0" result="filter_result_0"></feColorMatrix></filter><filter id="__lottie_element_36"><feColorMatrix type="matrix" color-interpolation-filters="sRGB" values="0 0 0 0 0.9921568632125854 0 0 0 0 0.8549019694328308 0 0 0 0 0.34117648005485535 0 0 0 1 0" result="filter_result_0"></feColorMatrix></filter><filter id="__lottie_element_39"><feColorMatrix type="matrix" color-interpolation-filters="sRGB" values="0 0 0 0 0.9921568632125854 0 0 0 0 0.8549019694328308 0 0 0 0 0.34117648005485535 0 0 0 1 0" result="filter_result_0"></feColorMatrix></filter><filter id="__lottie_element_42"><feColorMatrix type="matrix" color-interpolation-filters="sRGB" values="0 0 0 0 0.9921568632125854 0 0 0 0 0.8549019694328308 0 0 0 0 0.34117648005485535 0 0 0 1 0" result="filter_result_0"></feColorMatrix></filter><filter id="__lottie_element_45"><feColorMatrix type="matrix" color-interpolation-filters="sRGB" values="0 0 0 0 0.9921568632125854 0 0 0 0 0.8549019694328308 0 0 0 0 0.34117648005485535 0 0 0 1 0" result="filter_result_0"></feColorMatrix></filter><filter id="__lottie_element_48"><feColorMatrix type="matrix" color-interpolation-filters="sRGB" values="0 0 0 0 0.9921568632125854 0 0 0 0 0.8549019694328308 0 0 0 0 0.34117648005485535 0 0 0 1 0" result="filter_result_0"></feColorMatrix></filter><filter id="__lottie_element_51"><feColorMatrix type="matrix" color-interpolation-filters="sRGB" values="0 0 0 0 0.9921568632125854 0 0 0 0 0.8549019694328308 0 0 0 0 0.34117648005485535 0 0 0 1 0" result="filter_result_0"></feColorMatrix></filter><filter id="__lottie_element_54"><feColorMatrix type="matrix" color-interpolation-filters="sRGB" values="0 0 0 0 0.9921568632125854 0 0 0 0 0.8549019694328308 0 0 0 0 0.34117648005485535 0 0 0 1 0" result="filter_result_0"></feColorMatrix></filter></defs><g clip-path="url(#__lottie_element_3)"><g style="display: block;" transform="matrix(1,0,0,1,0,0)" opacity="1"><g opacity="1" transform="matrix(1,0,0,1,831.3150024414062,420.0539855957031)"><path stroke-linecap="square" stroke-linejoin="miter" fill-opacity="0" stroke-miterlimit="10" stroke="rgb(120,159,177)" stroke-opacity="1" stroke-width="8" d=" M-2.5,-0.009999999776482582 C-0.8320000171661377,-0.009999999776482582 0.8349999785423279,-0.003000000026077032 2.5,0.009999999776482582"></path></g><g opacity="1" transform="matrix(1,0,0,1,1124.3349609375,923.0900268554688)"><path stroke-linecap="square" stroke-linejoin="miter" fill-opacity="0" stroke-miterlimit="10" stroke-dasharray=" 10.075 25.188" stroke-dashoffset="0" stroke="rgb(120,159,177)" stroke-opacity="1" stroke-width="8" d=" M208.33299255371094,-240.5050048828125 C252.70899963378906,-169.11700439453125 277.9259948730469,-87.25599670410156 277.9259948730469,-0.23199999332427979 C277.9259948730469,272.3169860839844 30.608999252319336,494.2070007324219 -277.9259948730469,502.3609924316406"></path></g><g opacity="1" transform="matrix(1,0,0,1,831.3159790039062,1425.6739501953125)"><path stroke-linecap="square" stroke-linejoin="miter" fill-opacity="0" stroke-miterlimit="10" stroke="rgb(120,159,177)" stroke-opacity="1" stroke-width="8" d=" M2.5,-0.009999999776482582 C0.8349999785423279,0.0020000000949949026 -0.8320000171661377,0.009999999776482582 -2.5,0.009999999776482582"></path></g></g><g style="display: block;" transform="matrix(1,0,0,1,0,0)" opacity="1"><g opacity="1" transform="matrix(1,0,0,1,831.3200073242188,420.0679931640625)"><path stroke-linecap="square" stroke-linejoin="miter" fill-opacity="0" stroke-miterlimit="10" stroke="rgb(120,159,177)" stroke-opacity="1" stroke-width="8" d=" M-2.5,-0.024000000208616257 C-0.8309999704360962,-0.024000000208616257 0.8349999785423279,-0.007000000216066837 2.499000072479248,0.024000000208616257"></path></g><g opacity="1" transform="matrix(1,0,0,1,1018.531982421875,923.4249877929688)"><path stroke-linecap="square" stroke-linejoin="miter" fill-opacity="0" stroke-miterlimit="10" stroke-dasharray=" 10.018 25.045" stroke-dashoffset="0" stroke="rgb(120,159,177)" stroke-opacity="1" stroke-width="8" d=" M99.49400329589844,-302.89599609375 C145.14199829101562,-218.75 172.2050018310547,-114.04900360107422 172.2050018310547,-0.5680000185966492 C172.2050018310547,268.98699951171875 19.527999877929688,488.989990234375 -172.2050018310547,501.6789855957031"></path></g><g opacity="1" transform="matrix(1,0,0,1,831.3189697265625,1425.6590576171875)"><path stroke-linecap="square" stroke-linejoin="miter" fill-opacity="0" stroke-miterlimit="10" stroke="rgb(120,159,177)" stroke-opacity="1" stroke-width="8" d=" M2.5,-0.023000000044703484 C0.8360000252723694,0.00800000037997961 -0.8309999704360962,0.024000000208616257 -2.5,0.024000000208616257"></path></g></g><g style="display: block;" transform="matrix(1,0,0,1,0,0)" opacity="1"><g opacity="1" transform="matrix(1,0,0,1,826.3209838867188,1425.6590576171875)"><path stroke-linecap="square" stroke-linejoin="miter" fill-opacity="0" stroke-miterlimit="10" stroke="rgb(120,159,177)" stroke-opacity="1" stroke-width="8" d=" M2.5,0.023000000044703484 C0.8309999704360962,0.023000000044703484 -0.8360000252723694,0.007000000216066837 -2.5,-0.024000000208616257"></path></g><g opacity="1" transform="matrix(1,0,0,1,639.1170043945312,922.302978515625)"><path stroke-linecap="square" stroke-linejoin="miter" fill-opacity="0" stroke-miterlimit="10" stroke-dasharray=" 10.018 25.045" stroke-dashoffset="0" stroke="rgb(120,159,177)" stroke-opacity="1" stroke-width="8" d=" M159.7220001220703,501.67999267578125 C-26.1299991607666,480.5060119628906 -172.19700622558594,264.239013671875 -172.19700622558594,0.5550000071525574 C-172.19700622558594,-97.4739990234375 -152.00599670410156,-188.9530029296875 -117.08599853515625,-266.28900146484375"></path></g><g opacity="1" transform="matrix(1,0,0,1,826.3209838867188,420.0679931640625)"><path stroke-linecap="square" stroke-linejoin="miter" fill-opacity="0" stroke-miterlimit="10" stroke="rgb(120,159,177)" stroke-opacity="1" stroke-width="8" d=" M-2.5,0.023000000044703484 C-0.8360000252723694,-0.00800000037997961 0.8299999833106995,-0.023000000044703484 2.499000072479248,-0.023000000044703484"></path></g></g><g style="display: block;" transform="matrix(1,0,0,1,0,0)" opacity="1"><g opacity="1" transform="matrix(1,0,0,1,826.3150024414062,1425.6729736328125)"><path stroke-linecap="square" stroke-linejoin="miter" fill-opacity="0" stroke-miterlimit="10" stroke="rgb(120,159,177)" stroke-opacity="1" stroke-width="8" d=" M2.5,0.009999999776482582 C0.8320000171661377,0.009999999776482582 -0.8349999785423279,0.0020000000949949026 -2.5,-0.009999999776482582"></path></g><g opacity="1" transform="matrix(1,0,0,1,533.3090209960938,922.6380004882812)"><path stroke-linecap="square" stroke-linejoin="miter" fill-opacity="0" stroke-miterlimit="10" stroke-dasharray=" 10.075 25.187" stroke-dashoffset="0" stroke="rgb(120,159,177)" stroke-opacity="1" stroke-width="8" d=" M265.3269958496094,502.3609924316406 C-37.345001220703125,488.6000061035156 -277.9129943847656,269.052001953125 -277.9129943847656,0.21899999678134918 C-277.9129943847656,-79.36100006103516 -264.8299865722656,-130.6219940185547 -227.29400634765625,-197.50599670410156"></path></g><g opacity="1" transform="matrix(1,0,0,1,826.3150024414062,420.0539855957031)"><path stroke-linecap="square" stroke-linejoin="miter" fill-opacity="0" stroke-miterlimit="10" stroke="rgb(120,159,177)" stroke-opacity="1" stroke-width="8" d=" M-2.5,0.008999999612569809 C-0.8349999785423279,-0.003000000026077032 0.8320000171661377,-0.008999999612569809 2.5,-0.008999999612569809"></path></g></g><g style="display: block;" transform="matrix(1,0,0,1,0,0)" opacity="1"><g opacity="1" transform="matrix(1,0,0,1,831.3150024414062,420.1310119628906)"><path stroke-linecap="square" stroke-linejoin="miter" fill-opacity="0" stroke-miterlimit="10" stroke="rgb(120,159,177)" stroke-opacity="1" stroke-width="8" d=" M-2.494999885559082,-0.13099999725818634 C-0.8920000195503235,-0.13099999725818634 0.7049999833106995,-0.05000000074505806 2.2950000762939453,0.11100000143051147"></path></g><g opacity="1" transform="matrix(1,0,0,1,828.822998046875,924.3900146484375)"><path stroke-linecap="square" stroke-linejoin="miter" fill-opacity="0" stroke-miterlimit="10" stroke-dasharray=" 9.969 24.922" stroke-dashoffset="0" stroke="rgb(120,159,177)" stroke-opacity="1" stroke-width="8" d=" M117.01000213623047,-316.35198974609375 C135.572998046875,-235.58099365234375 146.58299255371094,-133.23399353027344 146.58299255371094,-18.23900032043457 C146.58299255371094,262.55499267578125 80.94499969482422,501.2919921875 -0.003000000026077032,501.2919921875 C-80.95999908447266,501.2919921875 -146.58299255371094,262.55499267578125 -146.58299255371094,-18.23900032043457 C-146.58299255371094,-129.74200439453125 -137.0919952392578,-223.3470001220703 -119.95999908447266,-300.0010070800781"></path></g><g opacity="1" transform="matrix(1,0,0,1,826.3259887695312,420.1300048828125)"><path stroke-linecap="square" stroke-linejoin="miter" fill-opacity="0" stroke-miterlimit="10" stroke="rgb(120,159,177)" stroke-opacity="1" stroke-width="8" d=" M-2.49399995803833,0.12999999523162842 C-0.9039999842643738,-0.035999998450279236 0.6919999718666077,-0.12300000339746475 2.2950000762939453,-0.12999999523162842"></path></g></g><g style="display: block;" transform="matrix(1,0,0,-1,0,1840)" opacity="1"><g opacity="1" transform="matrix(1,0,0,1,110.8290023803711,920.3510131835938)"><path stroke-linecap="square" stroke-linejoin="miter" fill-opacity="0" stroke-miterlimit="10" stroke="rgb(120,159,177)" stroke-opacity="1" stroke-width="8" d=" M-0.027000000700354576,2.5 C-0.027000000700354576,1.6660000085830688 -0.02199999988079071,0.8330000042915344 -0.013000000268220901,0"></path></g><g opacity="1" transform="matrix(1,0,0,1,829.1409912109375,922.8610229492188)"><path stroke-linecap="square" stroke-linejoin="miter" fill-opacity="0" stroke-miterlimit="10" stroke-dasharray=" 9.997 24.994" stroke-dashoffset="0" stroke="rgb(120,159,177)" stroke-opacity="1" stroke-width="8" d=" M-716.4349975585938,-29.92300033569336 C-689.4569702148438,-241.06900024414062 -379.1520080566406,-407.5929870605469 -0.3240000009536743,-407.5929870605469 C396.2090148925781,-407.5929870605469 717.6900024414062,-225.12399291992188 717.6900024414062,-0.009999999776482582 C717.6900024414062,2.078000068664551 717.6619873046875,4.1620001792907715 717.6069946289062,6.243000030517578"></path></g><g opacity="1" transform="matrix(1,0,0,1,110.8290023803711,925.3499755859375)"><path stroke-linecap="square" stroke-linejoin="miter" fill-opacity="0" stroke-miterlimit="10" stroke="rgb(120,159,177)" stroke-opacity="1" stroke-width="8" d=" M0.027000000700354576,2.499000072479248 C0.008999999612569809,1.6670000553131104 -0.004000000189989805,0.8339999914169312 -0.013000000268220901,0"></path></g></g><g style="display: block;" transform="matrix(1,0,0,1,0,0)" opacity="1"><g opacity="1" transform="matrix(1,0,0,1,831.3209838867188,820.2210083007812)"><path stroke-linecap="square" stroke-linejoin="miter" fill-opacity="0" stroke-miterlimit="10" stroke="rgb(120,159,177)" stroke-opacity="1" stroke-width="8" d=" M-2.500999927520752,-0.0010000000474974513 C-0.8320000171661377,-0.0010000000474974513 0.8349999785423279,0 2.500999927520752,0.0010000000474974513"></path></g><g opacity="1" transform="matrix(1,0,0,1,828.8200073242188,922.8820190429688)"><path stroke-linecap="square" stroke-linejoin="miter" fill-opacity="0" stroke-miterlimit="10" stroke-dasharray=" 10.054 25.135" stroke-dashoffset="0" stroke="rgb(120,159,177)" stroke-opacity="1" stroke-width="8" d=" M30.13800048828125,-102.572998046875 C412.6940002441406,-100.31400299072266 718.0139770507812,-55.25699996948242 718.0139770507812,-0.02500000037252903 C718.0139770507812,56.65800094604492 396.5329895019531,102.63200378417969 0.0010000000474974513,102.63200378417969 C-396.54901123046875,102.63200378417969 -718.0139770507812,56.65800094604492 -718.0139770507812,-0.02500000037252903 C-718.0139770507812,-55.86000061035156 -405.9989929199219,-101.2979965209961 -17.56599998474121,-102.63200378417969"></path></g><g opacity="1" transform="matrix(1,0,0,1,826.3189697265625,820.2219848632812)"><path stroke-linecap="square" stroke-linejoin="miter" fill-opacity="0" stroke-miterlimit="10" stroke="rgb(120,159,177)" stroke-opacity="1" stroke-width="8" d=" M-2.500999927520752,0.0010000000474974513 C-0.8349999785423279,0 0.8320000171661377,-0.0010000000474974513 2.500999927520752,-0.0010000000474974513"></path></g></g><g filter="url(#__lottie_element_54)" style="display: block;" transform="matrix(1,0,0,1,0,0)" opacity="1"><g opacity="1" transform="matrix(1,0,0,1,963.1909790039062,354.4750061035156)"><path stroke-linecap="butt" stroke-linejoin="miter" fill-opacity="0" stroke-miterlimit="10" stroke="rgb(99,98,98)" stroke-opacity="1" stroke-width="10" d=" M-396.42498779296875,242.47500610351562 C-396.42498779296875,242.47500610351562 -36.742000579833984,-242.47500610351562 -36.742000579833984,-242.47500610351562 C-36.742000579833984,-242.47500610351562 396.4259948730469,-242.47500610351562 396.4259948730469,-242.47500610351562"></path></g></g><g filter="url(#__lottie_element_51)" style="display: block;" transform="matrix(1,0,0,1,0,0)" opacity="1"><g opacity="1" transform="matrix(1,0,0,1,548.4140014648438,615.302001953125)"><path stroke-linecap="butt" stroke-linejoin="miter" fill-opacity="0" stroke-miterlimit="10" stroke="rgb(99,98,98)" stroke-opacity="1" stroke-width="15" d=" M-25.69099998474121,0 C-25.69099998474121,-14.189000129699707 -14.189000129699707,-25.69099998474121 0,-25.69099998474121 C14.189000129699707,-25.69099998474121 25.691999435424805,-14.189000129699707 25.691999435424805,0 C25.691999435424805,14.189000129699707 14.189000129699707,25.69099998474121 0,25.69099998474121 C-14.189000129699707,25.69099998474121 -25.69099998474121,14.189000129699707 -25.69099998474121,0z"></path></g></g><g filter="url(#__lottie_element_48)" style="display: block;" transform="matrix(1,0,0,1,0,0)" opacity="1"><g opacity="1" transform="matrix(1,0,0,1,0,0)"><path stroke-linecap="butt" stroke-linejoin="miter" fill-opacity="0" stroke-miterlimit="10" stroke="rgb(99,98,98)" stroke-opacity="1" stroke-width="10" d=" M329.6409912109375,878.052978515625 C329.6409912109375,878.052978515625 329.6409912109375,1629.7020263671875 329.6409912109375,1629.7020263671875"></path></g></g><g filter="url(#__lottie_element_45)" style="display: block;" transform="matrix(1,0,0,1,0,0)" opacity="1"><g opacity="1" transform="matrix(1,0,0,1,329.6409912109375,851.6849975585938)"><path stroke-linecap="butt" stroke-linejoin="miter" fill-opacity="0" stroke-miterlimit="10" stroke="rgb(99,98,98)" stroke-opacity="1" stroke-width="16" d=" M18.45800018310547,18.45800018310547 C8.263999938964844,28.652000427246094 -8.263999938964844,28.652000427246094 -18.45800018310547,18.45800018310547 C-28.652000427246094,8.263999938964844 -28.652000427246094,-8.263999938964844 -18.45800018310547,-18.45800018310547 C-8.263999938964844,-28.652000427246094 8.263999938964844,-28.652000427246094 18.45800018310547,-18.45800018310547 C28.652000427246094,-8.263999938964844 28.652000427246094,8.263999938964844 18.45800018310547,18.45800018310547z"></path></g></g><g filter="url(#__lottie_element_42)" transform="matrix(1,0,0,1,0,0)" opacity="1" style="display: block;"><g opacity="1" transform="matrix(1,0,0,1,952.1010131835938,938.8729858398438)"><path stroke-linecap="butt" stroke-linejoin="miter" fill-opacity="0" stroke-miterlimit="10" stroke="rgb(99,98,98)" stroke-opacity="1" stroke-width="15" d=" M0,172.61099243164062 C-95.33100128173828,172.61099243164062 -172.61199951171875,95.33000183105469 -172.61199951171875,0 C-172.61199951171875,-95.33100128173828 -95.33100128173828,-172.61099243164062 0,-172.61099243164062 C95.33100128173828,-172.61099243164062 172.61099243164062,-95.33100128173828 172.61099243164062,0 C172.61099243164062,95.33000183105469 95.33100128173828,172.61099243164062 0,172.61099243164062z"></path></g></g><g filter="url(#__lottie_element_39)" transform="matrix(0.9999921321868896,0,0,0.9999921321868896,0.007568359375,0.007568359375)" opacity="1" style="display: block;"><g opacity="1" transform="matrix(1,0,0,1,783.22998046875,1151.321044921875)"><path stroke-linecap="butt" stroke-linejoin="miter" fill-opacity="0" stroke-miterlimit="10" stroke="rgb(99,98,98)" stroke-opacity="1" stroke-width="6" d=" M63.12900161743164,-76.0479965209961 C63.12900161743164,-76.0479965209961 -63.12799835205078,76.0479965209961 -63.12799835205078,76.0479965209961"></path></g><g opacity="1" transform="matrix(1,0,0,1,706.6539916992188,1059.5780029296875)"><path stroke-linecap="butt" stroke-linejoin="miter" fill-opacity="0" stroke-miterlimit="10" stroke="rgb(99,98,98)" stroke-opacity="1" stroke-width="6" d=" M89.98300170898438,-45.619998931884766 C89.98300170898438,-45.619998931884766 -89.98200225830078,45.619998931884766 -89.98200225830078,45.619998931884766"></path></g><g opacity="1" transform="matrix(1,0,0,1,0,0)"><path stroke-linecap="butt" stroke-linejoin="miter" fill-opacity="0" stroke-miterlimit="10" stroke="rgb(99,98,98)" stroke-opacity="1" stroke-width="6" d=" M779.489013671875,950.6909790039062 C779.489013671875,950.6909790039062 579.8989868164062,950.6909790039062 579.8989868164062,950.6909790039062"></path></g><g opacity="1" transform="matrix(1,0,0,1,699.448974609375,848.7139892578125)"><path stroke-linecap="butt" stroke-linejoin="miter" fill-opacity="0" stroke-miterlimit="10" stroke="rgb(99,98,98)" stroke-opacity="1" stroke-width="6" d=" M88.54299926757812,36.50199890136719 C88.54299926757812,36.50199890136719 -88.54299926757812,-36.50199890136719 -88.54299926757812,-36.50199890136719"></path></g><g opacity="1" transform="matrix(1,0,0,1,888.7230224609375,1200.2220458984375)"><path stroke-linecap="butt" stroke-linejoin="miter" fill-opacity="0" stroke-miterlimit="10" stroke="rgb(99,98,98)" stroke-opacity="1" stroke-width="6" d=" M22.42099952697754,-93.65499877929688 C22.42099952697754,-93.65499877929688 -22.42099952697754,93.65499877929688 -22.42099952697754,93.65499877929688"></path></g><g opacity="1" transform="matrix(1,0,0,1,1009.6719970703125,1192.31005859375)"><path stroke-linecap="butt" stroke-linejoin="miter" fill-opacity="0" stroke-miterlimit="10" stroke="rgb(99,98,98)" stroke-opacity="1" stroke-width="6" d=" M-16.665000915527344,-85.74299621582031 C-16.665000915527344,-85.74299621582031 16.665000915527344,85.74299621582031 16.665000915527344,85.74299621582031"></path></g><g opacity="1" transform="matrix(1,0,0,1,1107.9420166015625,1138.0419921875)"><path stroke-linecap="butt" stroke-linejoin="miter" fill-opacity="0" stroke-miterlimit="10" stroke="rgb(99,98,98)" stroke-opacity="1" stroke-width="6" d=" M-50.05099868774414,-62.76900100708008 C-50.05099868774414,-62.76900100708008 50.05099868774414,62.768001556396484 50.05099868774414,62.768001556396484"></path></g><g opacity="1" transform="matrix(1,0,0,1,1171.260986328125,1055.623046875)"><path stroke-linecap="butt" stroke-linejoin="miter" fill-opacity="0" stroke-miterlimit="10" stroke="rgb(99,98,98)" stroke-opacity="1" stroke-width="6" d=" M-66.75199890136719,-31.56599998474121 C-66.75199890136719,-31.56599998474121 66.75199890136719,31.56599998474121 66.75199890136719,31.56599998474121"></path></g><g opacity="1" transform="matrix(1,0,0,1,1195.490966796875,954.3410034179688)"><path stroke-linecap="butt" stroke-linejoin="miter" fill-opacity="0" stroke-miterlimit="10" stroke="rgb(99,98,98)" stroke-opacity="1" stroke-width="6" d=" M-70.77899932861328,3.6500000953674316 C-70.77899932861328,3.6500000953674316 70.77899932861328,-3.6500000953674316 70.77899932861328,-3.6500000953674316"></path></g><g opacity="1" transform="matrix(1,0,0,1,1178.3590087890625,852.9459838867188)"><path stroke-linecap="butt" stroke-linejoin="miter" fill-opacity="0" stroke-miterlimit="10" stroke="rgb(99,98,98)" stroke-opacity="1" stroke-width="6" d=" M-59.65399932861328,40.73500061035156 C-59.65399932861328,40.73500061035156 59.65399932861328,-40.73500061035156 59.65399932861328,-40.73500061035156"></path></g><g opacity="1" transform="matrix(1,0,0,1,1108.4010009765625,751.802001953125)"><path stroke-linecap="butt" stroke-linejoin="miter" fill-opacity="0" stroke-miterlimit="10" stroke="rgb(99,98,98)" stroke-opacity="1" stroke-width="6" d=" M-38.4900016784668,60.95600128173828 C-38.4900016784668,60.95600128173828 38.4900016784668,-60.95600128173828 38.4900016784668,-60.95600128173828"></path></g><g opacity="1" transform="matrix(1,0,0,1,988.2009887695312,692.2360229492188)"><path stroke-linecap="butt" stroke-linejoin="miter" fill-opacity="0" stroke-miterlimit="10" stroke="rgb(99,98,98)" stroke-opacity="1" stroke-width="6" d=" M-4.804999828338623,76.89900207519531 C-4.804999828338623,76.89900207519531 4.804999828338623,-76.89900207519531 4.804999828338623,-76.89900207519531"></path></g><g opacity="1" transform="matrix(1,0,0,1,863.3280029296875,698.8099975585938)"><path stroke-linecap="butt" stroke-linejoin="miter" fill-opacity="0" stroke-miterlimit="10" stroke="rgb(99,98,98)" stroke-opacity="1" stroke-width="6" d=" M25.393999099731445,79.50499725341797 C25.393999099731445,79.50499725341797 -25.395000457763672,-79.50499725341797 -25.395000457763672,-79.50499725341797"></path></g><g opacity="1" transform="matrix(1,0,0,1,764.9879760742188,754.7639770507812)"><path stroke-linecap="butt" stroke-linejoin="miter" fill-opacity="0" stroke-miterlimit="10" stroke="rgb(99,98,98)" stroke-opacity="1" stroke-width="6" d=" M61.172000885009766,66.12999725341797 C61.172000885009766,66.12999725341797 -61.172000885009766,-66.12999725341797 -61.172000885009766,-66.12999725341797"></path></g></g><g filter="url(#__lottie_element_36)" transform="matrix(1,0,0,1,0,0)" opacity="1" style="display: block;"><g opacity="1" transform="matrix(1,0,0,1,924.0449829101562,950.6909790039062)"><path stroke-linecap="butt" stroke-linejoin="miter" fill-opacity="0" stroke-miterlimit="10" stroke="rgb(99,98,98)" stroke-opacity="1" stroke-width="7" d=" M0,-342.3110046386719 C189.05299377441406,-342.3110046386719 342.3110046386719,-189.0540008544922 342.3110046386719,0 C342.3110046386719,189.05299377441406 189.05299377441406,342.3110046386719 0,342.3110046386719 C-189.05299377441406,342.3110046386719 -342.3110046386719,189.05299377441406 -342.3110046386719,0 C-342.3110046386719,-189.0540008544922 -189.05299377441406,-342.3110046386719 0,-342.3110046386719z"></path></g></g><g filter="url(#__lottie_element_33)" transform="matrix(1,0,0,1,0,0)" opacity="1" style="display: block;"><g opacity="1" transform="matrix(1,0,0,1,1520.8470458984375,927.6099853515625)"><path stroke-linecap="butt" stroke-linejoin="miter" fill-opacity="0" stroke-miterlimit="10" stroke="rgb(99,98,98)" stroke-opacity="1" stroke-width="10" d=" M-28.259000778198242,-159.54600524902344 C14.576000213623047,-112.5260009765625 38.42499923706055,-60.323001861572266 38.42499923706055,-5.3520002365112305 C38.42499923706055,53.82500076293945 10.786999702453613,109.7969970703125 -38.42499923706055,159.54600524902344"></path></g></g><g filter="url(#__lottie_element_30)" transform="matrix(1,0,0,1,0,0)" opacity="1" style="display: block;"><g opacity="1" transform="matrix(1,0,0,1,166.1300048828125,919.35400390625)"><path stroke-linecap="butt" stroke-linejoin="miter" fill-opacity="0" stroke-miterlimit="10" stroke="rgb(99,98,98)" stroke-opacity="1" stroke-width="10" d=" M46.2140007019043,249.19700622558594 C-18.95199966430664,174.98399353027344 -55.327999114990234,92.26799774169922 -55.327999114990234,5.060999870300293 C-55.327999114990234,-28.636999130249023 -49.89699935913086,-61.66400146484375 -39.47200012207031,-93.78900146484375"></path></g></g><g filter="url(#__lottie_element_27)" transform="matrix(1,0,0,1,0,0)" opacity="1" style="display: block;"><g opacity="1" transform="matrix(1,0,0,1,811.10302734375,922.6959838867188)"><path stroke-linecap="butt" stroke-linejoin="miter" fill-opacity="0" stroke-miterlimit="10" stroke="rgb(99,98,98)" stroke-opacity="1" stroke-width="12" d=" M804.7789916992188,0 C804.7789916992188,0 502.6839904785156,-502.98699951171875 4.728000164031982,-502.98699951171875 C-503.28900146484375,-502.98699951171875 -804.7789916992188,0 -804.7789916992188,0 C-804.7789916992188,0 -503.28900146484375,502.98699951171875 4.728000164031982,502.98699951171875 C502.6839904785156,502.98699951171875 804.7789916992188,0 804.7789916992188,0z"></path></g></g><g filter="url(#__lottie_element_24)" transform="matrix(1,0,0,1,0,0)" opacity="1" style="display: block;"><g opacity="1" transform="matrix(1,0,0,1,811.10302734375,922.6959838867188)"><path stroke-linecap="butt" stroke-linejoin="miter" fill-opacity="0" stroke-miterlimit="10" stroke="rgb(99,98,98)" stroke-opacity="1" stroke-width="12" d=" M804.7789916992188,0 C804.7789916992188,0 636.6640014648438,-319.50201416015625 138.72900390625,-314.98699951171875 C-555.10302734375,-308.6960144042969 -804.7789916992188,0 -804.7789916992188,0 C-804.7789916992188,0 -786.4660034179688,30.552000045776367 -751.2630004882812,76.59500122070312"></path></g></g><g filter="url(#__lottie_element_21)" transform="matrix(1,0,0,1,328,1752)" opacity="1" fill="rgb(100,99,99)" font-size="65" font-family="Miriam Libre" font-style="normal" font-weight="700" aria-label="0010100" style="display: block;"><g stroke-linecap="butt" stroke-linejoin="round" stroke-miterlimit="4" transform="matrix(1,0,0,1,-134.45249938964844,-38.2105712890625)" opacity="1" style="display: inherit;"><g><g transform="matrix(1,0,0,1,0,0)" opacity="1" style="display: block;"><path d=" M20.15,-6.57 C17.16,-6.57 15.01,-7.84 13.71,-10.4 C12.41,-12.96 11.76,-17.16 11.76,-23.01 C11.76,-27.08 12.05,-30.34 12.61,-32.79 C13.17,-35.24 14.06,-37.03 15.27,-38.15 C16.49,-39.28 18.09,-39.84 20.08,-39.84 C22.12,-39.84 23.75,-39.29 24.96,-38.19 C26.17,-37.08 27.06,-35.33 27.62,-32.92 C28.19,-30.52 28.47,-27.3 28.47,-23.27 C28.47,-19.24 28.19,-16.01 27.62,-13.58 C27.06,-11.16 26.17,-9.38 24.96,-8.25 C23.75,-7.13 22.14,-6.57 20.15,-6.57z M20.15,0.84 C25.57,0.84 29.65,-1.18 32.4,-5.23 C35.15,-9.28 36.53,-15.3 36.53,-23.27 C36.53,-31.16 35.14,-37.14 32.37,-41.21 C29.6,-45.28 25.52,-47.32 20.15,-47.32 C14.78,-47.32 10.69,-45.28 7.9,-41.21 C5.1,-37.14 3.7,-31.16 3.7,-23.27 C3.7,-15.34 5.09,-9.34 7.86,-5.27 C10.64,-1.19 14.73,0.84 20.15,0.84z"></path><g opacity="1" transform="matrix(0.6499999761581421,0,0,0.6499999761581421,0,0)"></g></g></g></g><g stroke-linecap="butt" stroke-linejoin="round" stroke-miterlimit="4" transform="matrix(1,0,0,1,-93.11249542236328,-38.2105712890625)" opacity="1" style="display: inherit;"><g><g transform="matrix(1,0,0,1,0,0)" opacity="1" style="display: block;"><path d=" M20.15,-6.57 C17.16,-6.57 15.01,-7.84 13.71,-10.4 C12.41,-12.96 11.76,-17.16 11.76,-23.01 C11.76,-27.08 12.05,-30.34 12.61,-32.79 C13.17,-35.24 14.06,-37.03 15.27,-38.15 C16.49,-39.28 18.09,-39.84 20.08,-39.84 C22.12,-39.84 23.75,-39.29 24.96,-38.19 C26.17,-37.08 27.06,-35.33 27.62,-32.92 C28.19,-30.52 28.47,-27.3 28.47,-23.27 C28.47,-19.24 28.19,-16.01 27.62,-13.58 C27.06,-11.16 26.17,-9.38 24.96,-8.25 C23.75,-7.13 22.14,-6.57 20.15,-6.57z M20.15,0.84 C25.57,0.84 29.65,-1.18 32.4,-5.23 C35.15,-9.28 36.53,-15.3 36.53,-23.27 C36.53,-31.16 35.14,-37.14 32.37,-41.21 C29.6,-45.28 25.52,-47.32 20.15,-47.32 C14.78,-47.32 10.69,-45.28 7.9,-41.21 C5.1,-37.14 3.7,-31.16 3.7,-23.27 C3.7,-15.34 5.09,-9.34 7.86,-5.27 C10.64,-1.19 14.73,0.84 20.15,0.84z"></path><g opacity="1" transform="matrix(0.6499999761581421,0,0,0.6499999761581421,0,0)"></g></g></g></g><g stroke-linecap="butt" stroke-linejoin="round" stroke-miterlimit="4" transform="matrix(1,0,0,1,-51.77250289916992,-38.2105712890625)" opacity="1" style="display: inherit;"><g><g transform="matrix(1,0,0,1,0,0)" opacity="1" style="display: block;"><path d=" M4.22,0 C4.22,0 26.52,0 26.52,0 C26.91,0 27.23,-0.13 27.49,-0.39 C27.75,-0.65 27.88,-0.97 27.88,-1.36 C27.88,-1.36 27.88,-5.98 27.88,-5.98 C27.88,-6.37 27.75,-6.69 27.49,-6.95 C27.23,-7.21 26.91,-7.34 26.52,-7.34 C26.52,-7.34 19.17,-7.34 19.17,-7.34 C19.17,-7.34 19.17,-44.85 19.17,-44.85 C19.17,-45.37 18.99,-45.81 18.62,-46.18 C18.25,-46.55 17.81,-46.73 17.29,-46.73 C17.29,-46.73 14.75,-46.73 14.75,-46.73 C14.75,-46.73 4.22,-41.27 4.22,-41.27 C4.22,-41.27 4.22,-38.15 4.22,-38.15 C4.22,-37.63 4.41,-37.19 4.78,-36.82 C5.15,-36.45 5.59,-36.27 6.11,-36.27 C6.11,-36.27 11.57,-36.27 11.57,-36.27 C11.57,-36.27 11.57,-7.34 11.57,-7.34 C11.57,-7.34 4.22,-7.34 4.22,-7.34 C3.83,-7.34 3.51,-7.21 3.25,-6.95 C2.99,-6.69 2.86,-6.37 2.86,-5.98 C2.86,-5.98 2.86,-1.36 2.86,-1.36 C2.86,-0.97 2.99,-0.65 3.25,-0.39 C3.51,-0.13 3.83,0 4.22,0z"></path><g opacity="1" transform="matrix(0.6499999761581421,0,0,0.6499999761581421,0,0)"></g></g></g></g><g stroke-linecap="butt" stroke-linejoin="round" stroke-miterlimit="4" transform="matrix(1,0,0,1,-20.182504653930664,-38.2105712890625)" opacity="1" style="display: inherit;"><g><g transform="matrix(1,0,0,1,0,0)" opacity="1" style="display: block;"><path d=" M20.15,-6.57 C17.16,-6.57 15.01,-7.84 13.71,-10.4 C12.41,-12.96 11.76,-17.16 11.76,-23.01 C11.76,-27.08 12.05,-30.34 12.61,-32.79 C13.17,-35.24 14.06,-37.03 15.27,-38.15 C16.49,-39.28 18.09,-39.84 20.08,-39.84 C22.12,-39.84 23.75,-39.29 24.96,-38.19 C26.17,-37.08 27.06,-35.33 27.62,-32.92 C28.19,-30.52 28.47,-27.3 28.47,-23.27 C28.47,-19.24 28.19,-16.01 27.62,-13.58 C27.06,-11.16 26.17,-9.38 24.96,-8.25 C23.75,-7.13 22.14,-6.57 20.15,-6.57z M20.15,0.84 C25.57,0.84 29.65,-1.18 32.4,-5.23 C35.15,-9.28 36.53,-15.3 36.53,-23.27 C36.53,-31.16 35.14,-37.14 32.37,-41.21 C29.6,-45.28 25.52,-47.32 20.15,-47.32 C14.78,-47.32 10.69,-45.28 7.9,-41.21 C5.1,-37.14 3.7,-31.16 3.7,-23.27 C3.7,-15.34 5.09,-9.34 7.86,-5.27 C10.64,-1.19 14.73,0.84 20.15,0.84z"></path><g opacity="1" transform="matrix(0.6499999761581421,0,0,0.6499999761581421,0,0)"></g></g></g></g><g stroke-linecap="butt" stroke-linejoin="round" stroke-miterlimit="4" transform="matrix(1,0,0,1,21.15750503540039,-38.2105712890625)" opacity="1" style="display: inherit;"><g><g transform="matrix(1,0,0,1,0,0)" opacity="1" style="display: block;"><path d=" M4.22,0 C4.22,0 26.52,0 26.52,0 C26.91,0 27.23,-0.13 27.49,-0.39 C27.75,-0.65 27.88,-0.97 27.88,-1.36 C27.88,-1.36 27.88,-5.98 27.88,-5.98 C27.88,-6.37 27.75,-6.69 27.49,-6.95 C27.23,-7.21 26.91,-7.34 26.52,-7.34 C26.52,-7.34 19.17,-7.34 19.17,-7.34 C19.17,-7.34 19.17,-44.85 19.17,-44.85 C19.17,-45.37 18.99,-45.81 18.62,-46.18 C18.25,-46.55 17.81,-46.73 17.29,-46.73 C17.29,-46.73 14.75,-46.73 14.75,-46.73 C14.75,-46.73 4.22,-41.27 4.22,-41.27 C4.22,-41.27 4.22,-38.15 4.22,-38.15 C4.22,-37.63 4.41,-37.19 4.78,-36.82 C5.15,-36.45 5.59,-36.27 6.11,-36.27 C6.11,-36.27 11.57,-36.27 11.57,-36.27 C11.57,-36.27 11.57,-7.34 11.57,-7.34 C11.57,-7.34 4.22,-7.34 4.22,-7.34 C3.83,-7.34 3.51,-7.21 3.25,-6.95 C2.99,-6.69 2.86,-6.37 2.86,-5.98 C2.86,-5.98 2.86,-1.36 2.86,-1.36 C2.86,-0.97 2.99,-0.65 3.25,-0.39 C3.51,-0.13 3.83,0 4.22,0z"></path><g opacity="1" transform="matrix(0.6499999761581421,0,0,0.6499999761581421,0,0)"></g></g></g></g><g stroke-linecap="butt" stroke-linejoin="round" stroke-miterlimit="4" transform="matrix(1,0,0,1,52.747501373291016,-38.2105712890625)" opacity="1" style="display: inherit;"><g><g transform="matrix(1,0,0,1,0,0)" opacity="1" style="display: block;"><path d=" M20.15,-6.57 C17.16,-6.57 15.01,-7.84 13.71,-10.4 C12.41,-12.96 11.76,-17.16 11.76,-23.01 C11.76,-27.08 12.05,-30.34 12.61,-32.79 C13.17,-35.24 14.06,-37.03 15.27,-38.15 C16.49,-39.28 18.09,-39.84 20.08,-39.84 C22.12,-39.84 23.75,-39.29 24.96,-38.19 C26.17,-37.08 27.06,-35.33 27.62,-32.92 C28.19,-30.52 28.47,-27.3 28.47,-23.27 C28.47,-19.24 28.19,-16.01 27.62,-13.58 C27.06,-11.16 26.17,-9.38 24.96,-8.25 C23.75,-7.13 22.14,-6.57 20.15,-6.57z M20.15,0.84 C25.57,0.84 29.65,-1.18 32.4,-5.23 C35.15,-9.28 36.53,-15.3 36.53,-23.27 C36.53,-31.16 35.14,-37.14 32.37,-41.21 C29.6,-45.28 25.52,-47.32 20.15,-47.32 C14.78,-47.32 10.69,-45.28 7.9,-41.21 C5.1,-37.14 3.7,-31.16 3.7,-23.27 C3.7,-15.34 5.09,-9.34 7.86,-5.27 C10.64,-1.19 14.73,0.84 20.15,0.84z"></path><g opacity="1" transform="matrix(0.6499999761581421,0,0,0.6499999761581421,0,0)"></g></g></g></g><g stroke-linecap="butt" stroke-linejoin="round" stroke-miterlimit="4" transform="matrix(1,0,0,1,94.0875015258789,-38.2105712890625)" opacity="1" style="display: inherit;"><g><g transform="matrix(1,0,0,1,0,0)" opacity="1" style="display: block;"><path d=" M20.15,-6.57 C17.16,-6.57 15.01,-7.84 13.71,-10.4 C12.41,-12.96 11.76,-17.16 11.76,-23.01 C11.76,-27.08 12.05,-30.34 12.61,-32.79 C13.17,-35.24 14.06,-37.03 15.27,-38.15 C16.49,-39.28 18.09,-39.84 20.08,-39.84 C22.12,-39.84 23.75,-39.29 24.96,-38.19 C26.17,-37.08 27.06,-35.33 27.62,-32.92 C28.19,-30.52 28.47,-27.3 28.47,-23.27 C28.47,-19.24 28.19,-16.01 27.62,-13.58 C27.06,-11.16 26.17,-9.38 24.96,-8.25 C23.75,-7.13 22.14,-6.57 20.15,-6.57z M20.15,0.84 C25.57,0.84 29.65,-1.18 32.4,-5.23 C35.15,-9.28 36.53,-15.3 36.53,-23.27 C36.53,-31.16 35.14,-37.14 32.37,-41.21 C29.6,-45.28 25.52,-47.32 20.15,-47.32 C14.78,-47.32 10.69,-45.28 7.9,-41.21 C5.1,-37.14 3.7,-31.16 3.7,-23.27 C3.7,-15.34 5.09,-9.34 7.86,-5.27 C10.64,-1.19 14.73,0.84 20.15,0.84z"></path><g opacity="1" transform="matrix(0.6499999761581421,0,0,0.6499999761581421,0,0)"></g></g></g></g></g><g filter="url(#__lottie_element_18)" transform="matrix(1,0,0,1,1596,172)" opacity="1" fill="rgb(100,99,99)" font-size="65" font-family="Miriam Libre" font-style="normal" font-weight="700" aria-label="00100010" style="display: block;"><g stroke-linecap="butt" stroke-linejoin="round" stroke-miterlimit="4" transform="matrix(1,0,0,1,-155.12249755859375,-38.2105712890625)" opacity="1" style="display: inherit;"><g><g transform="matrix(1,0,0,1,0,0)" opacity="1" style="display: block;"><path d=" M20.15,-6.57 C17.16,-6.57 15.01,-7.84 13.71,-10.4 C12.41,-12.96 11.76,-17.16 11.76,-23.01 C11.76,-27.08 12.05,-30.34 12.61,-32.79 C13.17,-35.24 14.06,-37.03 15.27,-38.15 C16.49,-39.28 18.09,-39.84 20.08,-39.84 C22.12,-39.84 23.75,-39.29 24.96,-38.19 C26.17,-37.08 27.06,-35.33 27.62,-32.92 C28.19,-30.52 28.47,-27.3 28.47,-23.27 C28.47,-19.24 28.19,-16.01 27.62,-13.58 C27.06,-11.16 26.17,-9.38 24.96,-8.25 C23.75,-7.13 22.14,-6.57 20.15,-6.57z M20.15,0.84 C25.57,0.84 29.65,-1.18 32.4,-5.23 C35.15,-9.28 36.53,-15.3 36.53,-23.27 C36.53,-31.16 35.14,-37.14 32.37,-41.21 C29.6,-45.28 25.52,-47.32 20.15,-47.32 C14.78,-47.32 10.69,-45.28 7.9,-41.21 C5.1,-37.14 3.7,-31.16 3.7,-23.27 C3.7,-15.34 5.09,-9.34 7.86,-5.27 C10.64,-1.19 14.73,0.84 20.15,0.84z"></path><g opacity="1" transform="matrix(0.6499999761581421,0,0,0.6499999761581421,0,0)"></g></g></g></g><g stroke-linecap="butt" stroke-linejoin="round" stroke-miterlimit="4" transform="matrix(1,0,0,1,-113.7824935913086,-38.2105712890625)" opacity="1" style="display: inherit;"><g><g transform="matrix(1,0,0,1,0,0)" opacity="1" style="display: block;"><path d=" M20.15,-6.57 C17.16,-6.57 15.01,-7.84 13.71,-10.4 C12.41,-12.96 11.76,-17.16 11.76,-23.01 C11.76,-27.08 12.05,-30.34 12.61,-32.79 C13.17,-35.24 14.06,-37.03 15.27,-38.15 C16.49,-39.28 18.09,-39.84 20.08,-39.84 C22.12,-39.84 23.75,-39.29 24.96,-38.19 C26.17,-37.08 27.06,-35.33 27.62,-32.92 C28.19,-30.52 28.47,-27.3 28.47,-23.27 C28.47,-19.24 28.19,-16.01 27.62,-13.58 C27.06,-11.16 26.17,-9.38 24.96,-8.25 C23.75,-7.13 22.14,-6.57 20.15,-6.57z M20.15,0.84 C25.57,0.84 29.65,-1.18 32.4,-5.23 C35.15,-9.28 36.53,-15.3 36.53,-23.27 C36.53,-31.16 35.14,-37.14 32.37,-41.21 C29.6,-45.28 25.52,-47.32 20.15,-47.32 C14.78,-47.32 10.69,-45.28 7.9,-41.21 C5.1,-37.14 3.7,-31.16 3.7,-23.27 C3.7,-15.34 5.09,-9.34 7.86,-5.27 C10.64,-1.19 14.73,0.84 20.15,0.84z"></path><g opacity="1" transform="matrix(0.6499999761581421,0,0,0.6499999761581421,0,0)"></g></g></g></g><g stroke-linecap="butt" stroke-linejoin="round" stroke-miterlimit="4" transform="matrix(1,0,0,1,-72.44249725341797,-38.2105712890625)" opacity="1" style="display: inherit;"><g><g transform="matrix(1,0,0,1,0,0)" opacity="1" style="display: block;"><path d=" M4.22,0 C4.22,0 26.52,0 26.52,0 C26.91,0 27.23,-0.13 27.49,-0.39 C27.75,-0.65 27.88,-0.97 27.88,-1.36 C27.88,-1.36 27.88,-5.98 27.88,-5.98 C27.88,-6.37 27.75,-6.69 27.49,-6.95 C27.23,-7.21 26.91,-7.34 26.52,-7.34 C26.52,-7.34 19.17,-7.34 19.17,-7.34 C19.17,-7.34 19.17,-44.85 19.17,-44.85 C19.17,-45.37 18.99,-45.81 18.62,-46.18 C18.25,-46.55 17.81,-46.73 17.29,-46.73 C17.29,-46.73 14.75,-46.73 14.75,-46.73 C14.75,-46.73 4.22,-41.27 4.22,-41.27 C4.22,-41.27 4.22,-38.15 4.22,-38.15 C4.22,-37.63 4.41,-37.19 4.78,-36.82 C5.15,-36.45 5.59,-36.27 6.11,-36.27 C6.11,-36.27 11.57,-36.27 11.57,-36.27 C11.57,-36.27 11.57,-7.34 11.57,-7.34 C11.57,-7.34 4.22,-7.34 4.22,-7.34 C3.83,-7.34 3.51,-7.21 3.25,-6.95 C2.99,-6.69 2.86,-6.37 2.86,-5.98 C2.86,-5.98 2.86,-1.36 2.86,-1.36 C2.86,-0.97 2.99,-0.65 3.25,-0.39 C3.51,-0.13 3.83,0 4.22,0z"></path><g opacity="1" transform="matrix(0.6499999761581421,0,0,0.6499999761581421,0,0)"></g></g></g></g><g stroke-linecap="butt" stroke-linejoin="round" stroke-miterlimit="4" transform="matrix(1,0,0,1,-40.852508544921875,-38.2105712890625)" opacity="1" style="display: inherit;"><g><g transform="matrix(1,0,0,1,0,0)" opacity="1" style="display: block;"><path d=" M20.15,-6.57 C17.16,-6.57 15.01,-7.84 13.71,-10.4 C12.41,-12.96 11.76,-17.16 11.76,-23.01 C11.76,-27.08 12.05,-30.34 12.61,-32.79 C13.17,-35.24 14.06,-37.03 15.27,-38.15 C16.49,-39.28 18.09,-39.84 20.08,-39.84 C22.12,-39.84 23.75,-39.29 24.96,-38.19 C26.17,-37.08 27.06,-35.33 27.62,-32.92 C28.19,-30.52 28.47,-27.3 28.47,-23.27 C28.47,-19.24 28.19,-16.01 27.62,-13.58 C27.06,-11.16 26.17,-9.38 24.96,-8.25 C23.75,-7.13 22.14,-6.57 20.15,-6.57z M20.15,0.84 C25.57,0.84 29.65,-1.18 32.4,-5.23 C35.15,-9.28 36.53,-15.3 36.53,-23.27 C36.53,-31.16 35.14,-37.14 32.37,-41.21 C29.6,-45.28 25.52,-47.32 20.15,-47.32 C14.78,-47.32 10.69,-45.28 7.9,-41.21 C5.1,-37.14 3.7,-31.16 3.7,-23.27 C3.7,-15.34 5.09,-9.34 7.86,-5.27 C10.64,-1.19 14.73,0.84 20.15,0.84z"></path><g opacity="1" transform="matrix(0.6499999761581421,0,0,0.6499999761581421,0,0)"></g></g></g></g><g stroke-linecap="butt" stroke-linejoin="round" stroke-miterlimit="4" transform="matrix(1,0,0,1,0.48750603199005127,-38.2105712890625)" opacity="1" style="display: inherit;"><g><g transform="matrix(1,0,0,1,0,0)" opacity="1" style="display: block;"><path d=" M20.15,-6.57 C17.16,-6.57 15.01,-7.84 13.71,-10.4 C12.41,-12.96 11.76,-17.16 11.76,-23.01 C11.76,-27.08 12.05,-30.34 12.61,-32.79 C13.17,-35.24 14.06,-37.03 15.27,-38.15 C16.49,-39.28 18.09,-39.84 20.08,-39.84 C22.12,-39.84 23.75,-39.29 24.96,-38.19 C26.17,-37.08 27.06,-35.33 27.62,-32.92 C28.19,-30.52 28.47,-27.3 28.47,-23.27 C28.47,-19.24 28.19,-16.01 27.62,-13.58 C27.06,-11.16 26.17,-9.38 24.96,-8.25 C23.75,-7.13 22.14,-6.57 20.15,-6.57z M20.15,0.84 C25.57,0.84 29.65,-1.18 32.4,-5.23 C35.15,-9.28 36.53,-15.3 36.53,-23.27 C36.53,-31.16 35.14,-37.14 32.37,-41.21 C29.6,-45.28 25.52,-47.32 20.15,-47.32 C14.78,-47.32 10.69,-45.28 7.9,-41.21 C5.1,-37.14 3.7,-31.16 3.7,-23.27 C3.7,-15.34 5.09,-9.34 7.86,-5.27 C10.64,-1.19 14.73,0.84 20.15,0.84z"></path><g opacity="1" transform="matrix(0.6499999761581421,0,0,0.6499999761581421,0,0)"></g></g></g></g><g stroke-linecap="butt" stroke-linejoin="round" stroke-miterlimit="4" transform="matrix(1,0,0,1,41.8275032043457,-38.2105712890625)" opacity="1" style="display: inherit;"><g><g transform="matrix(1,0,0,1,0,0)" opacity="1" style="display: block;"><path d=" M20.15,-6.57 C17.16,-6.57 15.01,-7.84 13.71,-10.4 C12.41,-12.96 11.76,-17.16 11.76,-23.01 C11.76,-27.08 12.05,-30.34 12.61,-32.79 C13.17,-35.24 14.06,-37.03 15.27,-38.15 C16.49,-39.28 18.09,-39.84 20.08,-39.84 C22.12,-39.84 23.75,-39.29 24.96,-38.19 C26.17,-37.08 27.06,-35.33 27.62,-32.92 C28.19,-30.52 28.47,-27.3 28.47,-23.27 C28.47,-19.24 28.19,-16.01 27.62,-13.58 C27.06,-11.16 26.17,-9.38 24.96,-8.25 C23.75,-7.13 22.14,-6.57 20.15,-6.57z M20.15,0.84 C25.57,0.84 29.65,-1.18 32.4,-5.23 C35.15,-9.28 36.53,-15.3 36.53,-23.27 C36.53,-31.16 35.14,-37.14 32.37,-41.21 C29.6,-45.28 25.52,-47.32 20.15,-47.32 C14.78,-47.32 10.69,-45.28 7.9,-41.21 C5.1,-37.14 3.7,-31.16 3.7,-23.27 C3.7,-15.34 5.09,-9.34 7.86,-5.27 C10.64,-1.19 14.73,0.84 20.15,0.84z"></path><g opacity="1" transform="matrix(0.6499999761581421,0,0,0.6499999761581421,0,0)"></g></g></g></g><g stroke-linecap="butt" stroke-linejoin="round" stroke-miterlimit="4" transform="matrix(1,0,0,1,83.1675033569336,-38.2105712890625)" opacity="1" style="display: inherit;"><g><g transform="matrix(1,0,0,1,0,0)" opacity="1" style="display: block;"><path d=" M4.22,0 C4.22,0 26.52,0 26.52,0 C26.91,0 27.23,-0.13 27.49,-0.39 C27.75,-0.65 27.88,-0.97 27.88,-1.36 C27.88,-1.36 27.88,-5.98 27.88,-5.98 C27.88,-6.37 27.75,-6.69 27.49,-6.95 C27.23,-7.21 26.91,-7.34 26.52,-7.34 C26.52,-7.34 19.17,-7.34 19.17,-7.34 C19.17,-7.34 19.17,-44.85 19.17,-44.85 C19.17,-45.37 18.99,-45.81 18.62,-46.18 C18.25,-46.55 17.81,-46.73 17.29,-46.73 C17.29,-46.73 14.75,-46.73 14.75,-46.73 C14.75,-46.73 4.22,-41.27 4.22,-41.27 C4.22,-41.27 4.22,-38.15 4.22,-38.15 C4.22,-37.63 4.41,-37.19 4.78,-36.82 C5.15,-36.45 5.59,-36.27 6.11,-36.27 C6.11,-36.27 11.57,-36.27 11.57,-36.27 C11.57,-36.27 11.57,-7.34 11.57,-7.34 C11.57,-7.34 4.22,-7.34 4.22,-7.34 C3.83,-7.34 3.51,-7.21 3.25,-6.95 C2.99,-6.69 2.86,-6.37 2.86,-5.98 C2.86,-5.98 2.86,-1.36 2.86,-1.36 C2.86,-0.97 2.99,-0.65 3.25,-0.39 C3.51,-0.13 3.83,0 4.22,0z"></path><g opacity="1" transform="matrix(0.6499999761581421,0,0,0.6499999761581421,0,0)"></g></g></g></g><g stroke-linecap="butt" stroke-linejoin="round" stroke-miterlimit="4" transform="matrix(1,0,0,1,114.75749969482422,-38.2105712890625)" opacity="1" style="display: inherit;"><g><g transform="matrix(1,0,0,1,0,0)" opacity="1" style="display: block;"><path d=" M20.15,-6.57 C17.16,-6.57 15.01,-7.84 13.71,-10.4 C12.41,-12.96 11.76,-17.16 11.76,-23.01 C11.76,-27.08 12.05,-30.34 12.61,-32.79 C13.17,-35.24 14.06,-37.03 15.27,-38.15 C16.49,-39.28 18.09,-39.84 20.08,-39.84 C22.12,-39.84 23.75,-39.29 24.96,-38.19 C26.17,-37.08 27.06,-35.33 27.62,-32.92 C28.19,-30.52 28.47,-27.3 28.47,-23.27 C28.47,-19.24 28.19,-16.01 27.62,-13.58 C27.06,-11.16 26.17,-9.38 24.96,-8.25 C23.75,-7.13 22.14,-6.57 20.15,-6.57z M20.15,0.84 C25.57,0.84 29.65,-1.18 32.4,-5.23 C35.15,-9.28 36.53,-15.3 36.53,-23.27 C36.53,-31.16 35.14,-37.14 32.37,-41.21 C29.6,-45.28 25.52,-47.32 20.15,-47.32 C14.78,-47.32 10.69,-45.28 7.9,-41.21 C5.1,-37.14 3.7,-31.16 3.7,-23.27 C3.7,-15.34 5.09,-9.34 7.86,-5.27 C10.64,-1.19 14.73,0.84 20.15,0.84z"></path><g opacity="1" transform="matrix(0.6499999761581421,0,0,0.6499999761581421,0,0)"></g></g></g></g></g><g stroke-linecap="butt" stroke-linejoin="round" stroke-miterlimit="4" transform="matrix(1,0,0,1,10.000000305175782,10.000000305175782)" opacity="1" style="display: inherit;"><g><g transform="matrix(1,0,0,1,0,0)" opacity="1" style="display: block;"><path d=" M173.84,0 C173.84,0 205.81,0 205.81,0 C206.36,0 206.82,-0.18 207.2,-0.55 C207.57,-0.92 207.76,-1.38 207.76,-1.93 C207.76,-1.93 207.76,-15.39 207.76,-15.39 C207.76,-15.95 207.57,-16.41 207.2,-16.78 C206.82,-17.15 206.36,-17.33 205.81,-17.33 C205.81,-17.33 133.58,-17.33 133.58,-17.33 C133.58,-17.33 133.58,-106.18 133.58,-106.18 C133.58,-107.41 133.15,-108.45 132.3,-109.31 C131.44,-110.17 130.4,-110.6 129.17,-110.6 C129.17,-110.6 123.16,-110.6 123.16,-110.6 C123.16,-110.6 98.15,-97.68 98.15,-97.68 C98.15,-97.68 98.15,-90.31 98.15,-90.31 C98.15,-89.08 98.59,-88.04 99.46,-87.17 C100.33,-86.31 101.37,-85.87 102.6,-85.87 C102.6,-85.87 115.54,-85.87 115.54,-85.87 C115.54,-85.87 115.54,-17.33 115.54,-17.33 C115.54,-17.33 98.15,-17.33 98.15,-17.33 C97.6,-17.33 97.14,-17.15 96.76,-16.78 C96.39,-16.41 96.2,-15.95 96.2,-15.39 C96.2,-15.39 96.2,-1.93 96.2,-1.93 C96.2,-1.38 96.39,-0.92 96.76,-0.55 C97.14,-0.18 97.6,0 98.15,0 C98.15,0 173.84,0 173.84,0z"></path><g opacity="1" transform="matrix(0.6499999761581421,0,0,0.6499999761581421,0,0)"></g></g></g></g><g stroke-linecap="butt" stroke-linejoin="round" stroke-miterlimit="4" transform="matrix(1,0,0,1,10.000000305175782,10.000000305175782)" opacity="1" style="display: inherit;"><g><g transform="matrix(1,0,0,1,0,0)" opacity="1" style="display: block;"><path d=" M37.08,-15.53 C30.01,-15.53 24.9,-18.55 21.78,-24.59 C18.66,-30.64 17.11,-40.57 17.11,-54.39 C17.11,-64 C17.79,-71.72 19.14,-77.3 21.14,-81.12 C23.14,-84.95 25.26,-87.71 27.51,-89.42 C29.77,-91.13 32.51,-91.98 35.75,-91.98 C38.99,-91.98 41.7,-91.13 43.87,-89.42 C46.04,-87.71 48.01,-84.95 49.77,-81.12 C51.54,-77.3 52.42,-71.72 52.42,-64.39 C52.42,-55.05 51.52,-47.53 49.72,-41.83 C47.92,-36.12 45.42,-31.67 42.2,-28.47 C38.99,-25.27 37.28,-23.67 37.08,-23.67 C36.88,-23.67 37.08,-15.53 37.08,-15.53z M37.08,1.98 C49.88,1.98 59.54,-2.8 66.05,-12.35 C72.56,-21.9 75.82,-36.14 75.82,-55.05 C75.82,-73.68 72.53,-87.82 65.94,-97.47 C59.35,-107.12 49.69,-111.95 36.96,-111.95 C24.23,-111.95 14.54,-107.12 7.9,-97.47 C1.25,-87.82 -2.07,-73.68 -2.07,-55.05 C-2.07,-36.14 1.22,-21.92 7.8,-12.38 C14.37,-2.85 24.13,1.92 37.08,1.92z"></path><g opacity="1" transform="matrix(0.6499999761581421,0,0,0.6499999761581421,0,0)"></g></g></g></g><g stroke-linecap="butt" stroke-linejoin="round" stroke-miterlimit="4" transform="matrix(1,0,0,1,10.000000305175782,10.000000305175782)" opacity="1" style="display: inherit;"><g><g transform="matrix(1,0,0,1,0,0)" opacity="1" style="display: block;"><path d=" M173.84,0 C173.84,0 205.81,0 205.81,0 C206.36,0 206.82,-0.18 207.2,-0.55 C207.57,-0.92 207.76,-1.38 207.76,-1.93 C207.76,-1.93 207.76,-15.39 207.76,-15.39 C207.76,-15.95 207.57,-16.41 207.2,-16.78 C206.82,-17.15 206.36,-17.33 205.81,-17.33 C205.81,-17.33 133.58,-17.33 133.58,-17.33 C133.58,-17.33 133.58,-106.18 133.58,-106.18 C133.58,-107.41 133.15,-108.45 132.3,-109.31 C131.44,-110.17 130.4,-110.6 129.17,-110.6 C129.17,-110.6 123.16,-110.6 123.16,-110.6 C123.16,-110.6 98.15,-97.68 98.15,-97.68 C98.15,-97.68 98.15,-90.31 98.15,-90.31 C98.15,-89.08 98.59,-88.04 99.46,-87.17 C100.33,-86.31 101.37,-85.87 102.6,-85.87 C102.6,-85.87 115.54,-85.87 115.54,-85.87 C115.54,-85.87 115.54,-17.33 115.54,-17.33 C115.54,-17.33 98.15,-17.33 98.15,-17.33 C97.6,-17.33 97.14,-17.15 96.76,-16.78 C96.39,-16.41 96.2,-15.95 96.2,-15.39 C96.2,-15.39 96.2,-1.93 96.2,-1.93 C96.2,-1.38 96.39,-0.92 96.76,-0.55 C97.14,-0.18 97.6,0 98.15,0 C98.15,0 173.84,0 173.84,0z"></path><g opacity="1" transform="matrix(0.6499999761581421,0,0,0.6499999761581421,0,0)"></g></g></g></g><g stroke-linecap="butt" stroke-linejoin="round" stroke-miterlimit="4" transform="matrix(1,0,0,1,10.000000305175782,10.000000305175782)" opacity="1" style="display: inherit;"><g><g transform="matrix(1,0,0,1,0,0)" opacity="1" style="display: block;"><path d=" M37.08,-15.53 C30.01,-15.53 24.9,-18.55 21.78,-24.59 C18.66,-30.64 17.11,-40.57 17.11,-54.39 C17.11,-64 C17.79,-71.72 19.14,-77.3 21.14,-81.12 C23.14,-84.95 25.26,-87.71 27.51,-89.42 C29.77,-91.13 32.51,-91.98 35.75,-91.98 C38.99,-91.98 41.7,-91.13 43.87,-89.42 C46.04,-87.71 48.01,-84.95 49.77,-81.12 C51.54,-77.3 52.42,-71.72 52.42,-64.39 C52.42,-55.05 51.52,-47.53 49.72,-41.83 C47.92,-36.12 45.42,-31.67 42.2,-28.47 C38.99,-25.27 37.28,-23.67 37.08,-23.67 C36.88,-23.67 37.08,-15.53 37.08,-15.53z M37.08,1.98 C49.88,1.98 59.54,-2.8 66.05,-12.35 C72.56,-21.9 75.82,-36.14 75.82,-55.05 C75.82,-73.68 72.53,-87.82 65.94,-97.47 C59.35,-107.12 49.69,-111.95 36.96,-111.95 C24.23,-111.95 14.54,-107.12 7.9,-97.47 C1.25,-87.82 -2.07,-73.68 -2.07,-55.05 C-2.07,-36.14 1.22,-21.92 7.8,-12.38 C14.37,-2.85 24.13,1.92 37.08,1.92z"></path><g opacity="1" transform="matrix(0.6499999761581421,0,0,0.6499999761581421,0,0)"></g></g></g></g><g stroke-linecap="butt" stroke-linejoin="round" stroke-miterlimit="4" transform="matrix(1,0,0,1,10.000000305175782,10.000000305175782)" opacity="1" style="display: inherit;"><g><g transform="matrix(1,0,0,1,0,0)" opacity="1" style="display: block;"><path d=" M37.08,-15.53 C30.01,-15.53 24.9,-18.55 21.78,-24.59 C18.66,-30.64 17.11,-40.57 17.11,-54.39 C17.11,-64 C17.79,-71.72 19.14,-77.3 21.14,-81.12 C23.14,-84.95 25.26,-87.71 27.51,-89.42 C29.77,-91.13 32.51,-91.98 35.75,-91.98 C38.99,-91.98 41.7,-91.13 43.87,-89.42 C46.04,-87.71 48.01,-84.95 49.77,-81.12 C51.54,-77.3 52.42,-71.72 52.42,-64.39 C52.42,-55.05 51.52,-47.53 49.72,-41.83 C47.92,-36.12 45.42,-31.67 42.2,-28.47 C38.99,-25.27 37.28,-23.67 37.08,-23.67 C36.88,-23.67 37.08,-15.53 37.08,-15.53z M37.08,1.98 C49.88,1.98 59.54,-2.8 66.05,-12.35 C72.56,-21.9 75.82,-36.14 75.82,-55.05 C75.82,-73.68 72.53,-87.82 65.94,-97.47 C59.35,-107.12 49.69,-111.95 36.96,-111.95 C24.23,-111.95 14.54,-107.12 7.9,-97.47 C1.25,-87.82 -2.07,-73.68 -2.07,-55.05 C-2.07,-36.14 1.22,-21.92 7.8,-12.38 C14.37,-2.85 24.13,1.92 37.08,1.92z"></path><g opacity="1" transform="matrix(0.6499999761581421,0,0,0.6499999761581421,0,0)"></g></g></g></g></g><g filter="url(#__lottie_element_15)" style="display: block;" transform="matrix(1,0,0,1,0,0)" opacity="1"><g opacity="1" transform="matrix(1,0,0,1,0,0)"><path stroke-linecap="butt" stroke-linejoin="miter" fill-opacity="0" stroke-miterlimit="10" stroke="rgb(99,98,98)" stroke-opacity="1" stroke-width="8" d=" M6.323999881744385,961.4089965820312"></path></g><g opacity="1" transform="matrix(1,0,0,1,1263.10595703125,1134.634033203125)"><path stroke-linecap="butt" stroke-linejoin="miter" fill-opacity="0" stroke-miterlimit="10" stroke="rgb(99,98,98)" stroke-opacity="1" stroke-width="10" d=" M-277.8940124511719,-179.8419952392578 C-277.8940124511719,-179.8419952392578 81.79000091552734,179.8419952392578 81.79000091552734,179.8419952392578 C81.79000091552734,179.8419952392578 277.8940124511719,179.8419952392578 277.8940124511719,179.8419952392578"></path></g></g><g filter="url(#__lottie_element_12)" style="display: block;" transform="matrix(1,0,0,1,0,0)" opacity="1"><g opacity="1" transform="matrix(1,0,0,1,1616.748046875,1284.3089599609375)"><path stroke-linecap="butt" stroke-linejoin="miter" fill-opacity="0" stroke-miterlimit="10" stroke="rgb(99,98,98)" stroke-opacity="1" stroke-width="10" d=" M-175.9510040283203,203.1719970703125 C-175.9510040283203,203.1719970703125 -58.650001525878906,0 -58.650001525878906,0 C-58.650001525878906,0 58.6510009765625,-203.1719970703125 58.6510009765625,-203.1719970703125 C58.6510009765625,-203.1719970703125 175.9510040283203,0 175.9510040283203,0"></path></g></g><g filter="url(#__lottie_element_9)" style="display: block;" transform="matrix(1,0,0,1,0,0)" opacity="1"><g opacity="1" transform="matrix(1,0,0,1,1675.3990478515625,1385.89501953125)"><path stroke-linecap="butt" stroke-linejoin="miter" fill-opacity="0" stroke-miterlimit="10" stroke="rgb(99,98,98)" stroke-opacity="1" stroke-width="10" d=" M117.3010025024414,-101.58599853515625 C117.3010025024414,-101.58599853515625 234.6009979248047,101.58599853515625 234.6009979248047,101.58599853515625 C234.6009979248047,101.58599853515625 0,101.58599853515625 0,101.58599853515625 C0,101.58599853515625 -234.6020050048828,101.58599853515625 -234.6020050048828,101.58599853515625"></path></g></g><g style="display: block;" transform="matrix(1,0,0,1,-6,0)" opacity="1"><g opacity="1" transform="matrix(1,0,0,1,1680.31494140625,1324.89599609375)"><path fill="rgb(120,159,177)" fill-opacity="1" d=" M-14.6850004196167,110.87899780273438 C-18.757999420166016,106.81099700927734 -20.790000915527344,101.91799926757812 -20.790000915527344,96.19400024414062 C-20.790000915527344,90.47599792480469 -18.757999420166016,85.58300018310547 -14.6850004196167,81.50900268554688 C-10.616000175476074,77.44100189208984 -5.610000133514404,75.40399932861328 0.33000001311302185,75.40399932861328 C6.048999786376953,75.40399932861328 10.890000343322754,77.44100189208984 14.850000381469727,81.50900268554688 C18.809999465942383,85.58300018310547 20.790000915527344,90.47599792480469 20.790000915527344,96.19400024414062 C20.790000915527344,101.91799926757812 18.809999465942383,106.81099700927734 14.850000381469727,110.87899780273438 C10.890000343322754,114.9469985961914 6.048999786376953,116.98400115966797 0.33000001311302185,116.98400115966797 C-5.610000133514404,116.98400115966797 -10.616000175476074,114.9469985961914 -14.6850004196167,110.87899780273438z M-11.550000190734863,41.08399963378906 C-12.432000160217285,40.20800018310547 -12.869999885559082,39.10499954223633 -12.869999885559082,37.784000396728516 C-12.869999885559082,37.784000396728516 -12.869999885559082,-112.36599731445312 -12.869999885559082,-112.36599731445312 C-12.869999885559082,-113.68599700927734 -12.432000160217285,-114.78399658203125 -11.550000190734863,-115.66600036621094 C-10.67300033569336,-116.54199981689453 -9.571000099182129,-116.98400115966797 -8.25,-116.98400115966797 C-8.25,-116.98400115966797 8.25,-116.98400115966797 8.25,-116.98400115966797 C9.569999694824219,-116.98400115966797 10.668000221252441,-116.54199981689453 11.550000190734863,-115.66600036621094 C12.427000045776367,-114.78399658203125 12.869999885559082,-113.68599700927734 12.869999885559082,-112.36599731445312 C12.869999885559082,-112.36599731445312 12.869999885559082,37.784000396728516 12.869999885559082,37.784000396728516 C12.869999885559082,39.10499954223633 12.427000045776367,40.20800018310547 11.550000190734863,41.08399963378906 C10.668000221252441,41.965999603271484 9.569999694824219,42.40399932861328 8.25,42.40399932861328 C8.25,42.40399932861328 -8.25,42.40399932861328 -8.25,42.40399932861328 C-9.571000099182129,42.40399932861328 -10.67300033569336,41.965999603271484 -11.550000190734863,41.08399963378906z"></path></g></g></g></svg>
